<svg version="1.1" id="Layer_1" xmlns="http://www.w3.org/2000/svg" xmlns:xlink="http://www.w3.org/1999/xlink" x="0px" y="0px"
	 width="100%" viewBox="0 0 158 154" enable-background="new 0 0 158 154" xml:space="preserve">
<path fill="#030303" opacity="1.000000" stroke="none" 
	d="
M159.000000,59.000000 
	C159.000000,91.333336 159.000000,123.166664 159.000000,155.000000 
	C106.333336,155.000000 53.666668,155.000000 1.000000,155.000000 
	C1.000000,103.666664 1.000000,52.333332 1.000000,1.000000 
	C53.666668,1.000000 106.333336,1.000000 159.000000,1.000000 
	C159.000000,20.166666 159.000000,39.333332 159.000000,59.000000 
M81.208420,133.465607 
	C56.405106,128.813400 37.011486,115.962837 22.553072,94.655113 
	C21.619045,96.500969 20.867569,98.556496 21.585094,99.536728 
	C25.648746,105.088264 29.646664,110.806282 34.518024,115.603386 
	C37.394459,118.435974 39.800224,120.569061 39.317673,124.991600 
	C39.158211,126.453049 40.396584,128.541595 41.631775,129.604141 
	C50.074467,136.866669 60.235504,140.596695 71.044510,141.936188 
	C81.448982,143.225555 91.317963,141.111572 101.408684,137.275406 
	C117.921989,130.997589 129.000198,119.926224 135.040451,104.065094 
	C139.544861,92.236954 141.545364,79.469368 145.824402,67.537399 
	C150.210144,55.307861 153.984116,43.241791 151.950928,30.084146 
	C151.208496,25.279572 151.608978,19.483179 146.425385,17.193407 
	C142.702408,15.548847 138.074799,15.119612 133.936050,15.401298 
	C120.253738,16.332527 106.630302,18.518135 92.945961,18.920870 
	C79.278114,19.323118 65.589622,19.832836 51.864758,16.922886 
	C44.638855,15.390845 36.587322,17.076860 29.028234,18.151428 
	C26.306664,18.538317 22.403002,19.854906 22.899687,24.518091 
	C24.251526,37.209980 25.549509,49.569649 35.485901,59.541508 
	C42.529831,66.610580 55.991314,71.739738 64.213928,67.579536 
	C73.519913,62.871204 78.587570,54.742668 80.223679,44.535542 
	C80.877548,40.456318 82.866051,38.274498 87.105499,38.347389 
	C89.725227,38.392437 92.346367,38.355740 94.939796,38.355740 
	C95.523788,41.370430 95.745476,44.001709 96.560089,46.434441 
	C98.786911,53.084454 101.319725,59.631283 103.623138,66.256599 
	C105.390320,71.339569 103.232170,74.281593 97.871346,74.087006 
	C96.433800,74.034828 94.930229,72.921471 93.615448,73.161903 
	C92.246681,73.412209 91.069557,74.710503 89.808640,75.550560 
	C90.834137,76.390877 91.785545,77.815186 92.899727,77.956551 
	C95.687057,78.310181 98.554878,78.209267 101.378387,78.061325 
	C107.690483,77.730583 110.509354,73.089798 108.292244,67.127510 
	C107.880066,66.019081 108.233322,64.626015 108.233322,62.623962 
	C118.334793,70.109245 128.851410,70.928246 140.675949,66.991722 
	C140.068741,69.736916 139.524368,71.900803 139.116699,74.090141 
	C136.710449,87.012589 133.245056,99.577995 126.406792,110.956825 
	C116.335564,127.715248 101.466652,135.293655 81.208420,133.465607 
M97.544838,94.367737 
	C92.043541,92.118813 87.915718,94.379951 84.634140,98.601059 
	C81.861336,102.167740 75.244492,102.174774 75.113480,108.474220 
	C76.142830,108.726730 76.779961,108.999451 77.426575,109.024170 
	C86.948227,109.388115 96.475006,109.985405 105.990677,109.846924 
	C108.044434,109.817039 111.828568,107.033089 111.769608,105.647316 
	C111.570053,100.956894 103.697517,94.958275 97.544838,94.367737 
M94.684120,120.052620 
	C96.745804,119.555565 98.807495,119.058510 100.869186,118.561455 
	C100.937714,117.907722 101.006241,117.253983 101.074776,116.600250 
	C98.902802,116.088852 96.744690,115.278908 94.553696,115.177162 
	C93.222931,115.115364 91.841354,116.147751 90.482605,116.688591 
	C91.646988,117.680656 92.811363,118.672722 94.684120,120.052620 
z"/>
<path fill="#EDEDED" opacity="1.000000" stroke="none" 
	d="
M81.601868,133.694595 
	C101.466652,135.293655 116.335564,127.715248 126.406792,110.956825 
	C133.245056,99.577995 136.710449,87.012589 139.116699,74.090141 
	C139.524368,71.900803 140.068741,69.736916 140.675949,66.991722 
	C128.851410,70.928246 118.334793,70.109245 108.233322,62.623962 
	C108.233322,64.626015 107.880066,66.019081 108.292244,67.127510 
	C110.509354,73.089798 107.690483,77.730583 101.378387,78.061325 
	C98.554878,78.209267 95.687057,78.310181 92.899727,77.956551 
	C91.785545,77.815186 90.834137,76.390877 89.808640,75.550560 
	C91.069557,74.710503 92.246681,73.412209 93.615448,73.161903 
	C94.930229,72.921471 96.433800,74.034828 97.871346,74.087006 
	C103.232170,74.281593 105.390320,71.339569 103.623138,66.256599 
	C101.319725,59.631283 98.786911,53.084454 96.560089,46.434441 
	C95.745476,44.001709 95.523788,41.370430 94.939796,38.355740 
	C92.346367,38.355740 89.725227,38.392437 87.105499,38.347389 
	C82.866051,38.274498 80.877548,40.456318 80.223679,44.535542 
	C78.587570,54.742668 73.519913,62.871204 64.213928,67.579536 
	C55.991314,71.739738 42.529831,66.610580 35.485901,59.541508 
	C25.549509,49.569649 24.251526,37.209980 22.899687,24.518091 
	C22.403002,19.854906 26.306664,18.538317 29.028234,18.151428 
	C36.587322,17.076860 44.638855,15.390845 51.864758,16.922886 
	C65.589622,19.832836 79.278114,19.323118 92.945961,18.920870 
	C106.630302,18.518135 120.253738,16.332527 133.936050,15.401298 
	C138.074799,15.119612 142.702408,15.548847 146.425385,17.193407 
	C151.608978,19.483179 151.208496,25.279572 151.950928,30.084146 
	C153.984116,43.241791 150.210144,55.307861 145.824402,67.537399 
	C141.545364,79.469368 139.544861,92.236954 135.040451,104.065094 
	C129.000198,119.926224 117.921989,130.997589 101.408684,137.275406 
	C91.317963,141.111572 81.448982,143.225555 71.044510,141.936188 
	C60.235504,140.596695 50.074467,136.866669 41.631775,129.604141 
	C40.396584,128.541595 39.158211,126.453049 39.317673,124.991600 
	C39.800224,120.569061 37.394459,118.435974 34.518024,115.603386 
	C29.646664,110.806282 25.648746,105.088264 21.585094,99.536728 
	C20.867569,98.556496 21.619045,96.500969 22.553072,94.655113 
	C37.011486,115.962837 56.405106,128.813400 81.601868,133.694595 
M145.432129,29.385445 
	C144.783112,27.755648 144.134109,26.125851 143.059814,23.428106 
	C136.216476,24.444120 129.094955,25.253407 122.085411,26.632038 
	C117.642456,27.505873 113.562263,28.746916 110.225922,24.222204 
	C109.568542,23.330677 107.631905,23.010727 106.301888,23.046488 
	C96.845093,23.300762 87.380249,23.538815 77.947090,24.198559 
	C75.436523,24.374147 73.048645,26.059710 70.565346,26.941971 
	C68.358398,27.726051 65.879303,29.323721 63.900532,28.877253 
	C57.718201,27.482344 51.793602,24.948725 45.613342,23.539692 
	C42.147148,22.749435 38.310749,22.879101 34.758057,23.396711 
	C31.959467,23.804455 29.544865,25.515823 30.291677,29.247499 
	C32.044910,38.008064 32.016720,47.205219 38.041809,54.779259 
	C45.757702,64.478783 61.350700,69.639885 70.640388,55.990093 
	C73.338402,52.025776 75.401672,47.091125 76.006592,42.376816 
	C76.764000,36.474094 79.820015,34.377426 84.903259,33.270626 
	C92.741676,31.563921 99.306725,34.146557 100.515030,40.283142 
	C103.128052,53.553791 111.166183,61.263149 123.925835,64.764435 
	C130.998001,66.705063 140.231720,62.897942 142.899994,56.149742 
	C146.195663,47.814857 148.046158,39.212673 145.432129,29.385445 
z"/>
<path fill="#F1F1F1" opacity="1.000000" stroke="none" 
	d="
M97.959366,94.381844 
	C103.697517,94.958275 111.570053,100.956894 111.769608,105.647316 
	C111.828568,107.033089 108.044434,109.817039 105.990677,109.846924 
	C96.475006,109.985405 86.948227,109.388115 77.426575,109.024170 
	C76.779961,108.999451 76.142830,108.726730 75.113480,108.474220 
	C75.244492,102.174774 81.861336,102.167740 84.634140,98.601059 
	C87.915718,94.379951 92.043541,92.118813 97.959366,94.381844 
z"/>
<path fill="#DDDDDD" opacity="1.000000" stroke="none" 
	d="
M94.329926,119.858704 
	C92.811363,118.672722 91.646988,117.680656 90.482605,116.688599 
	C91.841354,116.147751 93.222931,115.115364 94.553696,115.177162 
	C96.744690,115.278908 98.902802,116.088852 101.074776,116.600250 
	C101.006241,117.253983 100.937714,117.907722 100.869186,118.561455 
	C98.807495,119.058510 96.745804,119.555565 94.329926,119.858704 
z"/>
<path fill="#090909" opacity="1.000000" stroke="none" 
	d="
M145.459457,29.810268 
	C148.046158,39.212673 146.195663,47.814857 142.899994,56.149742 
	C140.231720,62.897942 130.998001,66.705063 123.925835,64.764435 
	C111.166183,61.263149 103.128052,53.553791 100.515030,40.283142 
	C99.306725,34.146557 92.741676,31.563921 84.903259,33.270626 
	C79.820015,34.377426 76.764000,36.474094 76.006592,42.376816 
	C75.401672,47.091125 73.338402,52.025776 70.640388,55.990093 
	C61.350700,69.639885 45.757702,64.478783 38.041809,54.779259 
	C32.016720,47.205219 32.044910,38.008064 30.291677,29.247499 
	C29.544865,25.515823 31.959467,23.804455 34.758057,23.396711 
	C38.310749,22.879101 42.147148,22.749435 45.613342,23.539692 
	C51.793602,24.948725 57.718201,27.482344 63.900532,28.877253 
	C65.879303,29.323721 68.358398,27.726051 70.565346,26.941971 
	C73.048645,26.059710 75.436523,24.374147 77.947090,24.198559 
	C87.380249,23.538815 96.845093,23.300762 106.301888,23.046488 
	C107.631905,23.010727 109.568542,23.330677 110.225922,24.222204 
	C113.562263,28.746916 117.642456,27.505873 122.085411,26.632038 
	C129.094955,25.253407 136.216476,24.444120 143.059814,23.428106 
	C144.134109,26.125851 144.783112,27.755648 145.459457,29.810268 
M121.150497,39.578957 
	C120.180580,39.374237 119.102402,38.803711 118.266319,39.051178 
	C117.035545,39.415462 115.977432,40.363117 114.845772,41.062286 
	C115.807617,41.870693 116.712608,42.765995 117.756477,43.449062 
	C118.243019,43.767433 118.998703,43.674496 119.565849,43.758175 
	C121.074509,50.190449 125.059143,51.427330 129.812729,47.159367 
	C131.259628,45.860271 132.914185,44.793468 134.373550,43.506771 
	C135.155960,42.816936 135.725708,41.885883 136.391418,41.063679 
	C135.440750,40.592194 134.506226,39.756443 133.536545,39.713436 
	C129.714600,39.543930 125.881577,39.623470 121.150497,39.578957 
M53.816898,38.172665 
	C52.097286,38.598839 50.377670,39.025013 48.869457,39.398796 
	C50.994366,42.285706 52.411366,44.347279 53.970562,46.295013 
	C55.967957,48.790146 57.960579,48.339897 60.271111,46.436954 
	C61.814724,45.165638 63.882225,44.546806 65.657852,43.535175 
	C66.888542,42.834003 68.021431,41.961155 69.198013,41.165016 
	C68.028076,40.201473 66.932648,38.541138 65.674072,38.406551 
	C62.065739,38.020706 58.391296,38.253105 53.816898,38.172665 
z"/>
<path fill="#EFEFEF" opacity="1.000000" stroke="none" 
	d="
M121.601578,39.594776 
	C125.881577,39.623470 129.714600,39.543930 133.536545,39.713436 
	C134.506226,39.756443 135.440750,40.592194 136.391418,41.063679 
	C135.725708,41.885883 135.155960,42.816936 134.373550,43.506771 
	C132.914185,44.793468 131.259628,45.860271 129.812729,47.159367 
	C125.059143,51.427330 121.074509,50.190449 119.565849,43.758175 
	C118.998703,43.674496 118.243019,43.767433 117.756477,43.449062 
	C116.712608,42.765995 115.807617,41.870693 114.845772,41.062286 
	C115.977432,40.363117 117.035545,39.415462 118.266319,39.051178 
	C119.102402,38.803711 120.180580,39.374237 121.601578,39.594776 
z"/>
<path fill="#E1E1E1" opacity="1.000000" stroke="none" 
	d="
M54.279869,38.207565 
	C58.391296,38.253105 62.065739,38.020706 65.674072,38.406551 
	C66.932648,38.541138 68.028076,40.201473 69.198013,41.165016 
	C68.021431,41.961155 66.888542,42.834003 65.657852,43.535175 
	C63.882225,44.546806 61.814724,45.165638 60.271111,46.436954 
	C57.960579,48.339897 55.967957,48.790146 53.970562,46.295013 
	C52.411366,44.347279 50.994366,42.285706 48.869457,39.398796 
	C50.377670,39.025013 52.097286,38.598839 54.279869,38.207565 
z"/>
</svg>